HIERARCHY
ROOT Hips
{
	OFFSET 0.00000 0.00000 0.00000
	CHANNELS 6 Xposition Yposition Zposition Zrotation Yrotation Xrotation 
	JOINT LHipJoint
	{
		OFFSET 0 0 0
		CHANNELS 3 Zrotation Yrotation Xrotation
		JOINT LeftUpLeg
		{
			OFFSET 1.59715 -1.91394 0.36268
			CHANNELS 3 Zrotation Yrotation Xrotation
			JOINT LeftLeg
			{
				OFFSET 2.53886 -6.97546 0.00000
				CHANNELS 3 Zrotation Yrotation Xrotation
				JOINT LeftFoot
				{
					OFFSET 2.77084 -7.61284 0.00000
					CHANNELS 3 Zrotation Yrotation Xrotation
					JOINT LeftToeBase
					{
						OFFSET 0.19855 -0.54550 2.06057
						CHANNELS 3 Zrotation Yrotation Xrotation
						End Site
						{
							OFFSET 0.00000 -0.00000 1.07182
						}
					}
				}
			}
		}
	}
	JOINT RHipJoint
	{
		OFFSET 0 0 0
		CHANNELS 3 Zrotation Yrotation Xrotation
		JOINT RightUpLeg
		{
			OFFSET -1.71086 -1.91394 0.36268
			CHANNELS 3 Zrotation Yrotation Xrotation
			JOINT RightLeg
			{
				OFFSET -2.59448 -7.12828 0.00000
				CHANNELS 3 Zrotation Yrotation Xrotation
				JOINT RightFoot
				{
					OFFSET -2.80237 -7.69945 0.00000
					CHANNELS 3 Zrotation Yrotation Xrotation
					JOINT RightToeBase
					{
						OFFSET -0.18280 -0.50224 2.06614
						CHANNELS 3 Zrotation Yrotation Xrotation
						End Site
						{
							OFFSET -0.00000 -0.00000 1.07055
						}
					}
				}
			}
		}
	}
	JOINT LowerBack
	{
		OFFSET 0 0 0
		CHANNELS 3 Zrotation Yrotation Xrotation
		JOINT Spine
		{
			OFFSET 0.04838 1.91536 -0.09733
			CHANNELS 3 Zrotation Yrotation Xrotation
			JOINT Spine1
			{
				OFFSET 0.04097 1.92183 -0.02751
				CHANNELS 3 Zrotation Yrotation Xrotation
				JOINT Neck
				{
					OFFSET 0 0 0
					CHANNELS 3 Zrotation Yrotation Xrotation
					JOINT Neck1
					{
						OFFSET 0.18766 3.12816 0.13727
						CHANNELS 3 Zrotation Yrotation Xrotation
						JOINT Head
						{
							OFFSET -0.11178 3.16074 0.02732
							CHANNELS 3 Zrotation Yrotation Xrotation
							End Site
							{
								OFFSET 0.47685 1.04189 0.57898
							}
						}
					}
				}
				JOINT LeftShoulder
				{
					OFFSET 0 0 0
					CHANNELS 3 Zrotation Yrotation Xrotation
					JOINT LeftArm
					{
						OFFSET 3.49325 0.99827 -0.10681
						CHANNELS 3 Zrotation Yrotation Xrotation
						JOINT LeftForeArm
						{
							OFFSET 5.12842 -0.00000 0.00000
							CHANNELS 3 Zrotation Yrotation Xrotation
							JOINT LeftHand
							{
								OFFSET 3.47396 -0.00000 0.00000
								CHANNELS 3 Zrotation Yrotation Xrotation
								JOINT LeftFingerBase
								{
									OFFSET 0 0 0
									CHANNELS 3 Zrotation Yrotation Xrotation
									JOINT LeftHandIndex1
									{
										OFFSET 0.72861 -0.00000 0.00000
										CHANNELS 3 Zrotation Yrotation Xrotation
										End Site
										{
											OFFSET 0.58742 -0.00000 0.00000
										}
									}
								}
								JOINT LThumb
								{
									OFFSET 0 0 0
									CHANNELS 3 Zrotation Yrotation Xrotation
									End Site
									{
										OFFSET 0.59639 -0.00000 0.59639
									}
								}
							}
						}
					}
				}
				JOINT RightShoulder
				{
					OFFSET 0 0 0
					CHANNELS 3 Zrotation Yrotation Xrotation
					JOINT RightArm
					{
						OFFSET -3.23261 1.50670 -0.18692
						CHANNELS 3 Zrotation Yrotation Xrotation
						JOINT RightForeArm
						{
							OFFSET -5.48477 -0.00000 -0.00000
							CHANNELS 3 Zrotation Yrotation Xrotation
							JOINT RightHand
							{
								OFFSET -3.47856 -0.00000 0.00000
								CHANNELS 3 Zrotation Yrotation Xrotation
								JOINT RightFingerBase
								{
									OFFSET 0 0 0
									CHANNELS 3 Zrotation Yrotation Xrotation
									JOINT RightHandIndex1
									{
										OFFSET -0.70997 -0.00000 0.00000
										CHANNELS 3 Zrotation Yrotation Xrotation
										End Site
										{
											OFFSET -0.57240 -0.00000 0.00000
										}
									}
								}
								JOINT RThumb
								{
									OFFSET 0 0 0
									CHANNELS 3 Zrotation Yrotation Xrotation
									End Site
									{
										OFFSET -0.58114 -0.00000 0.58114
									}
								}
							}
						}
					}
				}
			}
		}
	}
}
MOTION
Frames: 9
Frame Time: .0083333
-15.2374 18.0426 12.5294 -5.0541 -61.0331 11.7904 0.0000 0.0000 0.0000 -15.6838 -14.6280 -18.4189 3.7855 11.8693 35.2712 0.9326 -3.6353 -17.3905 0.0008 -0.1825 -0.5014 0.0000 0.0000 0.0000 24.5466 18.1569 -18.5561 -4.5998 -12.9184 39.0639 -0.8723 -6.0152 -20.8164 -3.4161 -11.3399 33.4350 2.5573 0.8251 6.1497 3.2041 1.2973 1.1740 1.7635 0.6168 -2.2549 -2.6144 -0.6997 -11.7122 -2.4684 -0.1532 12.9722 -0.3674 -0.4104 5.8573 0.0000 -0.0000 0.0000 -91.1046 1.4837 17.6325 20.5254 -31.2701 -5.8016 -0.0000 -0.0000 7.6335 12.6714 29.6740 6.3513 -7.1250 0.0000 -0.0000 -20.8784 59.0282 -7.3577 0.0000 -0.0000 0.0000 85.0031 3.9743 17.9695 -19.7115 30.2932 -5.3851 0.0000 -0.0000 -10.1060 -28.4524 13.9505 -7.4429 7.1250 -0.0000 -0.0000 -0.6872 -14.2036 -0.4976
-15.2157 18.0367 12.5308 -5.2034 -60.9555 11.8899 0.0000 0.0000 0.0000 -15.6087 -14.6355 -18.4191 3.7664 11.8428 35.1783 0.9337 -3.6912 -17.3935 0.0025 -0.3197 -0.8783 0.0000 0.0000 0.0000 24.5600 18.1465 -18.7123 -4.6324 -12.9574 39.2094 -0.8628 -5.9522 -20.6834 -3.4439 -11.3812 33.5764 2.4998 0.8489 6.3290 3.2216 1.3326 1.1940 1.8088 0.6341 -2.3367 -2.6460 -0.7195 -11.8853 -2.4981 -0.1536 13.4335 -0.3745 -0.4254 6.0329 -0.0000 -0.0000 0.0000 -91.0871 1.2962 17.5238 20.5626 -31.3142 -5.8209 -0.0000 -0.0000 7.5995 12.7863 29.6327 6.4023 -7.1250 0.0000 -0.0000 -20.7287 59.0157 -7.2958 -0.0000 -0.0000 0.0000 85.0095 4.0904 18.1045 -19.6349 30.1999 -5.3465 0.0000 -0.0000 -9.8414 -28.4735 14.2183 -7.5878 7.1250 -0.0000 -0.0000 -0.6759 -13.9011 -0.4938
-15.1947 18.0331 12.5333 -5.5385 -60.5843 12.0074 0.0000 0.0000 0.0000 -15.4083 -14.7207 -18.2651 3.7452 11.8134 35.0752 0.9336 -3.9494 -17.3611 0.0014 -0.2439 -0.6700 0.0000 0.0000 0.0000 24.7791 17.9232 -18.7106 -4.6588 -12.9890 39.3271 -0.8481 -6.1422 -20.6760 -3.3059 -11.1746 32.8709 2.7143 0.7583 6.5296 3.2254 1.2310 1.2682 1.6988 0.5809 -2.3661 -2.7513 -0.7402 -11.7737 -2.4831 -0.1629 13.8477 -0.3548 -0.4430 6.1456 -0.0000 0.0000 0.0000 -90.9604 1.1209 17.4207 20.6219 -31.3843 -5.8518 -0.0000 -0.0000 7.5764 12.5299 29.6125 6.2669 -7.1250 0.0000 -0.0000 -20.9798 58.9393 -7.3504 -0.0000 0.0000 0.0000 85.0571 4.1579 18.3836 -19.6089 30.1683 -5.3334 0.0000 -0.0000 -9.6453 -28.4109 14.4056 -7.6647 7.1250 -0.0000 -0.0000 -0.6156 -13.7008 -0.4523
-15.1734 18.0325 12.5398 -5.3653 -60.1238 11.5161 0.0000 0.0000 0.0000 -15.5465 -14.8971 -17.8796 3.7283 11.7898 34.9925 0.9389 -4.1419 -17.3907 0.0012 -0.2258 -0.6204 0.0000 0.0000 0.0000 24.7781 17.4161 -18.5742 -4.6791 -13.0130 39.4172 -0.8459 -6.2560 -20.7358 -3.1655 -10.9583 32.1394 2.7730 0.6116 6.8942 3.1336 1.0521 1.3415 1.5830 0.4903 -2.4892 -2.6816 -0.7447 -11.5534 -2.5856 -0.1672 14.3830 -0.4008 -0.4610 6.2777 -0.0000 0.0000 0.0000 -90.7881 1.0172 17.2965 20.6754 -31.4475 -5.8797 -0.0000 -0.0000 7.5096 12.4839 29.6149 6.2438 -7.1250 0.0000 -0.0000 -21.0293 58.9312 -7.3645 -0.0000 0.0000 0.0000 85.0916 4.1237 18.6693 -19.5923 30.1480 -5.3251 0.0000 -0.0000 -9.3902 -28.2018 14.7655 -7.7822 7.1250 -0.0000 -0.0000 -0.4400 -13.3297 -0.3267
-15.1540 18.0296 12.5446 -5.0790 -59.9304 10.9956 0.0000 0.0000 0.0000 -15.7988 -14.9479 -17.5569 3.7130 11.7684 34.9174 0.9494 -4.1303 -17.4917 0.0033 -0.3698 -1.0161 0.0000 0.0000 0.0000 24.6487 17.0597 -18.4797 -4.7000 -13.0378 39.5101 -0.8557 -6.1519 -20.7554 -3.1219 -10.8899 31.9094 2.6237 0.5852 7.1698 3.0654 1.0144 1.4149 1.5974 0.4722 -2.5682 -2.8232 -0.7641 -11.6200 -2.5547 -0.1558 15.2444 -0.3716 -0.4815 6.5649 0.0000 -0.0000 0.0000 -90.7153 0.8804 17.2439 20.6957 -31.4715 -5.8903 -0.0000 -0.0000 7.3733 12.9067 29.6628 6.4701 -7.1250 0.0000 -0.0000 -20.6257 59.0708 -7.2850 0.0000 -0.0000 0.0000 85.0586 4.1814 18.5966 -19.4869 30.0192 -5.2722 0.0000 -0.0000 -8.6502 -27.6582 15.4374 -7.9417 7.1250 -0.0000 -0.0000 -0.0105 -12.6636 -0.0080
-15.1332 18.0230 12.5417 -5.3335 -59.8331 11.1519 0.0000 0.0000 0.0000 -15.6823 -14.9168 -17.5293 3.6955 11.7438 34.8316 0.9518 -4.0997 -17.5178 0.0057 -0.4871 -1.3386 0.0000 0.0000 0.0000 24.7427 16.9404 -18.5836 -4.7279 -13.0707 39.6335 -0.8923 -5.8256 -20.8740 -3.2796 -11.1345 32.7349 2.6412 0.6135 7.2137 3.1037 1.0521 1.4799 1.6236 0.4906 -2.5261 -3.0049 -0.7929 -11.8416 -2.5144 -0.1412 16.2912 -0.3343 -0.5083 6.9413 0.0000 -0.0000 0.0000 -90.6637 0.6586 17.2953 20.6976 -31.4737 -5.8913 -0.0000 -0.0000 7.2334 13.2395 29.7728 6.6636 -7.1250 0.0000 -0.0000 -20.3602 59.2486 -7.2736 0.0000 -0.0000 0.0000 85.0181 4.3578 18.5023 -19.3781 29.8858 -5.2179 0.0000 -0.0000 -8.0541 -27.3068 15.7331 -7.9694 7.1250 -0.0000 -0.0000 0.2524 -12.3891 0.1924
-15.1124 18.0176 12.5363 -5.5943 -59.7464 11.4043 0.0000 0.0000 0.0000 -15.5292 -14.9110 -17.6187 3.6794 11.7211 34.7523 0.9508 -4.1132 -17.5074 0.0058 -0.4907 -1.3483 0.0000 0.0000 0.0000 24.8113 16.8562 -18.7915 -4.7615 -13.1101 39.7821 -0.9335 -5.4751 -21.0229 -3.4279 -11.3575 33.4952 2.6477 0.5963 7.1983 3.1102 1.0286 1.4903 1.6291 0.4789 -2.5066 -2.8942 -0.7285 -11.9267 -2.7056 -0.0219 17.3197 -0.4097 -0.4881 7.2903 -0.0000 -0.0000 0.0000 -90.5145 0.4723 17.1975 20.6951 -31.4707 -5.8900 -0.0000 -0.0000 7.0970 13.1050 29.8256 6.6046 -7.1250 0.0000 -0.0000 -20.5397 59.2671 -7.3504 -0.0000 -0.0000 0.0000 85.0886 4.4819 18.7209 -19.2991 29.7887 -5.1786 0.0000 -0.0000 -7.8729 -27.3966 15.6609 -7.9643 7.1250 -0.0000 -0.0000 0.1857 -12.4553 0.1412
-15.0909 18.0140 12.5337 -5.4008 -59.7557 11.2647 0.0000 0.0000 0.0000 -15.6657 -14.9254 -17.6757 3.6656 11.7016 34.6843 0.9570 -4.0499 -17.5734 0.0081 -0.5802 -1.5945 0.0000 0.0000 0.0000 24.6023 16.7211 -19.0432 -4.7973 -13.1519 39.9396 -0.9508 -5.2323 -21.0252 -3.3756 -11.2796 33.2286 2.4673 0.5911 7.1764 3.0280 1.0079 1.4703 1.6471 0.4706 -2.5165 -2.7710 -0.6387 -11.8808 -2.9276 0.1301 18.4192 -0.4949 -0.4576 7.6431 0.0000 -0.0000 0.0000 -90.3512 0.3716 17.0337 20.7624 -31.5500 -5.9251 -0.0000 -0.0000 6.8384 12.7577 29.9920 6.4573 -7.1250 0.0000 -0.0000 -21.0271 59.3429 -7.5728 0.0000 -0.0000 0.0000 85.1620 4.5254 19.0569 -19.2599 29.7404 -5.1591 0.0000 -0.0000 -7.7172 -27.3892 15.5988 -7.9314 7.1250 -0.0000 -0.0000 0.1847 -12.5251 0.1402
-15.0655 18.0066 12.5315 -5.2464 -59.6945 11.0871 0.0000 0.0000 0.0000 -15.7851 -14.9993 -17.6355 3.6497 11.6791 34.6061 0.9658 -3.9913 -17.6640 0.0094 -0.6250 -1.7175 0.0000 0.0000 0.0000 24.4378 16.4884 -19.2768 -4.8349 -13.1954 40.1043 -0.9509 -5.0695 -20.9236 -3.2565 -11.0991 32.6150 2.3896 0.6046 7.1997 2.9513 1.0193 1.4900 1.6101 0.4772 -2.5093 -2.8126 -0.6180 -11.8954 -2.9982 0.1970 19.7071 -0.5144 -0.4716 8.0738 -0.0000 0.0000 0.0000 -90.2131 0.2148 17.0274 20.8190 -31.6165 -5.9548 -0.0000 -0.0000 6.5859 12.7768 30.3021 6.5273 -7.1250 0.0000 -0.0000 -21.2442 59.6345 -7.8048 -0.0000 0.0000 0.0000 85.2414 4.6584 18.9909 -19.1954 29.6607 -5.1272 0.0000 -0.0000 -7.4795 -27.1191 15.7144 -7.8972 7.1250 -0.0000 -0.0000 0.3759 -12.4376 0.2861
